<svg width="187" height="58" viewBox="0 0 187 58" fill="none" xmlns="http://www.w3.org/2000/svg">
<path d="M9.408 38H2.064V21.224H8.592C9.728 21.224 10.704 21.36 11.52 21.632C12.352 21.904 12.976 22.272 13.392 22.736C14.144 23.6 14.52 24.576 14.52 25.664C14.52 26.976 14.096 27.952 13.248 28.592C12.96 28.816 12.76 28.96 12.648 29.024C12.536 29.072 12.336 29.16 12.048 29.288C13.088 29.512 13.912 29.984 14.52 30.704C15.144 31.408 15.456 32.288 15.456 33.344C15.456 34.512 15.056 35.544 14.256 36.44C13.328 37.48 11.712 38 9.408 38ZM5.808 28.016H7.584C8.624 28.016 9.392 27.904 9.888 27.68C10.4 27.456 10.656 26.976 10.656 26.24C10.656 25.488 10.424 24.992 9.96 24.752C9.496 24.512 8.712 24.392 7.608 24.392H5.808V28.016ZM5.808 34.832H8.376C9.448 34.832 10.248 34.704 10.776 34.448C11.32 34.176 11.592 33.656 11.592 32.888C11.592 32.104 11.304 31.592 10.728 31.352C10.168 31.096 9.264 30.968 8.016 30.968H5.808V34.832ZM25.1429 28.256C24.0709 28.256 23.2709 28.64 22.7429 29.408C22.2149 30.16 21.9509 31.16 21.9509 32.408V38H18.3509V25.088H21.9509V26.792C22.4149 26.264 22.9909 25.816 23.6789 25.448C24.3829 25.08 25.0949 24.888 25.8149 24.872L25.8389 28.256H25.1429ZM39.1689 38H35.7849V36.44C34.8569 37.608 33.7049 38.192 32.3289 38.192C30.9689 38.192 29.8249 37.8 28.8969 37.016C27.9689 36.216 27.5049 35.16 27.5049 33.848C27.5049 32.52 27.9849 31.528 28.9449 30.872C29.9049 30.216 31.2169 29.888 32.8809 29.888H35.5689V29.816C35.5689 28.44 34.8409 27.752 33.3849 27.752C32.7609 27.752 32.0969 27.88 31.3929 28.136C30.7049 28.376 30.1209 28.68 29.6409 29.048L28.0329 26.72C29.7289 25.488 31.6649 24.872 33.8409 24.872C35.4089 24.872 36.6889 25.264 37.6809 26.048C38.6729 26.832 39.1689 28.072 39.1689 29.768V38ZM35.5449 33.08V32.456H33.2889C31.8489 32.456 31.1289 32.904 31.1289 33.8C31.1289 34.264 31.2969 34.624 31.6329 34.88C31.9849 35.12 32.4809 35.24 33.1209 35.24C33.7609 35.24 34.3209 35.048 34.8009 34.664C35.2969 34.264 35.5449 33.736 35.5449 33.08ZM46.1509 30.8V38H42.5509V25.088H46.1509V26.528C47.2389 25.424 48.4629 24.872 49.8229 24.872C51.1829 24.872 52.3189 25.352 53.2309 26.312C54.1589 27.272 54.6229 28.552 54.6229 30.152V38H51.0229V30.704C51.0229 28.72 50.2949 27.728 48.8389 27.728C48.1189 27.728 47.4869 27.992 46.9429 28.52C46.4149 29.032 46.1509 29.792 46.1509 30.8ZM63.139 38.192C61.619 38.192 60.259 37.544 59.059 36.248C57.859 34.952 57.259 33.344 57.259 31.424C57.259 29.504 57.843 27.936 59.011 26.72C60.179 25.488 61.547 24.872 63.115 24.872C64.683 24.872 65.963 25.424 66.955 26.528V20.192H70.555V38H66.955V36.296C65.947 37.56 64.675 38.192 63.139 38.192ZM60.883 31.568C60.883 32.608 61.195 33.464 61.819 34.136C62.443 34.792 63.171 35.12 64.003 35.12C64.835 35.12 65.539 34.792 66.115 34.136C66.707 33.464 67.003 32.608 67.003 31.568C67.003 30.512 66.707 29.64 66.115 28.952C65.539 28.248 64.827 27.896 63.979 27.896C63.131 27.896 62.403 28.248 61.795 28.952C61.187 29.656 60.883 30.528 60.883 31.568ZM86.1594 21.224H89.9034V38H86.1594L78.1674 27.488V38H74.4234V21.224H77.9274L86.1594 32.024V21.224ZM104.749 38H101.365V36.44C100.437 37.608 99.2846 38.192 97.9086 38.192C96.5486 38.192 95.4046 37.8 94.4766 37.016C93.5486 36.216 93.0846 35.16 93.0846 33.848C93.0846 32.52 93.5646 31.528 94.5246 30.872C95.4846 30.216 96.7966 29.888 98.4606 29.888H101.149V29.816C101.149 28.44 100.421 27.752 98.9646 27.752C98.3406 27.752 97.6766 27.88 96.9726 28.136C96.2846 28.376 95.7006 28.68 95.2206 29.048L93.6126 26.72C95.3086 25.488 97.2446 24.872 99.4206 24.872C100.989 24.872 102.269 25.264 103.261 26.048C104.253 26.832 104.749 28.072 104.749 29.768V38ZM101.125 33.08V32.456H98.8686C97.4286 32.456 96.7086 32.904 96.7086 33.8C96.7086 34.264 96.8766 34.624 97.2126 34.88C97.5646 35.12 98.0606 35.24 98.7006 35.24C99.3406 35.24 99.9006 35.048 100.381 34.664C100.877 34.264 101.125 33.736 101.125 33.08ZM119.987 31.04V38H116.363V30.944C116.363 29.92 116.203 29.168 115.883 28.688C115.579 28.208 115.075 27.968 114.371 27.968C113.683 27.968 113.067 28.232 112.523 28.76C111.995 29.272 111.731 30.032 111.731 31.04V38H108.131V25.088H111.731V26.552C112.723 25.432 113.859 24.872 115.139 24.872C115.955 24.872 116.691 25.112 117.347 25.592C118.019 26.072 118.523 26.656 118.859 27.344C119.355 26.56 120.019 25.952 120.851 25.52C121.699 25.088 122.547 24.872 123.395 24.872C124.915 24.872 126.139 25.328 127.067 26.24C127.995 27.136 128.459 28.44 128.459 30.152V38H124.835V30.944C124.835 28.96 124.107 27.968 122.651 27.968C121.931 27.968 121.307 28.232 120.779 28.76C120.251 29.272 119.987 30.032 119.987 31.04ZM143.016 36.128C141.56 37.504 139.848 38.192 137.88 38.192C135.928 38.192 134.312 37.592 133.032 36.392C131.752 35.176 131.112 33.552 131.112 31.52C131.112 29.488 131.76 27.872 133.056 26.672C134.368 25.472 135.912 24.872 137.688 24.872C139.464 24.872 140.968 25.408 142.2 26.48C143.448 27.552 144.072 29.024 144.072 30.896V32.816H134.664C134.776 33.52 135.144 34.096 135.768 34.544C136.392 34.992 137.096 35.216 137.88 35.216C139.144 35.216 140.184 34.792 141 33.944L143.016 36.128ZM140.424 30.248C140.344 29.48 140.056 28.888 139.56 28.472C139.064 28.056 138.456 27.848 137.736 27.848C137.032 27.848 136.384 28.064 135.792 28.496C135.2 28.928 134.856 29.512 134.76 30.248H140.424Z" fill="white"/>
</svg>
